<?xml version="1.0" standalone="no"?>
<!DOCTYPE svg PUBLIC "-//W3C//DTD SVG 20010904//EN"
 "http://www.w3.org/TR/2001/REC-SVG-20010904/DTD/svg10.dtd">
<svg version="1.0" xmlns="http://www.w3.org/2000/svg"
 width="1024.000000pt" height="1024.000000pt" viewBox="0 0 1024.000000 1024.000000"
 preserveAspectRatio="xMidYMid meet">

<g transform="translate(0.000000,1024.000000) scale(0.100000,-0.100000)"
fill="#000000" stroke="none">
<path d="M5023 9063 c9 -2 23 -2 30 0 6 3 -1 5 -18 5 -16 0 -22 -2 -12 -5z"/>
<path d="M5198 9063 c6 -2 18 -2 25 0 6 3 1 5 -13 5 -14 0 -19 -2 -12 -5z"/>
<path d="M5258 9053 c7 -3 16 -2 19 1 4 3 -2 6 -13 5 -11 0 -14 -3 -6 -6z"/>
<path d="M5298 9043 c7 -3 16 -2 19 1 4 3 -2 6 -13 5 -11 0 -14 -3 -6 -6z"/>
<path d="M4828 9004 c-39 -21 -35 -28 5 -8 37 19 44 24 31 24 -5 -1 -21 -8
-36 -16z"/>
<path d="M5507 8936 c24 -21 61 -58 84 -84 23 -26 32 -33 21 -17 -22 32 -93
102 -127 124 -11 8 -1 -3 22 -23z"/>
<path d="M4739 8943 c-13 -16 -12 -17 4 -4 16 13 21 21 13 21 -2 0 -10 -8 -17
-17z"/>
<path d="M4679 8893 l-34 -38 38 34 c20 19 37 36 37 38 0 8 -8 0 -41 -34z"/>
<path d="M4617 8818 c-27 -37 -45 -69 -30 -53 18 19 64 85 59 85 -3 0 -16 -15
-29 -32z"/>
<path d="M5068 8733 c7 -3 16 -2 19 1 4 3 -2 6 -13 5 -11 0 -14 -3 -6 -6z"/>
<path d="M5158 8733 c7 -3 16 -2 19 1 4 3 -2 6 -13 5 -11 0 -14 -3 -6 -6z"/>
<path d="M4552 8705 c-17 -37 -14 -45 4 -12 9 16 14 31 11 33 -2 2 -9 -7 -15
-21z"/>
<path d="M5190 8726 c0 -2 7 -7 16 -10 8 -3 12 -2 9 4 -6 10 -25 14 -25 6z"/>
<path d="M4984 8688 l-19 -23 23 19 c12 11 22 21 22 23 0 8 -8 2 -26 -19z"/>
<path d="M5250 8685 c40 -48 43 -51 32 -30 -6 11 -21 29 -34 40 -22 19 -22 19
2 -10z"/>
<path d="M4531 8644 c0 -11 3 -14 6 -6 3 7 2 16 -1 19 -3 4 -6 -2 -5 -13z"/>
<path d="M5711 8614 c0 -11 3 -14 6 -6 3 7 2 16 -1 19 -3 4 -6 -2 -5 -13z"/>
<path d="M4521 8604 c0 -11 3 -14 6 -6 3 7 2 16 -1 19 -3 4 -6 -2 -5 -13z"/>
<path d="M4931 8584 c0 -11 3 -14 6 -6 3 7 2 16 -1 19 -3 4 -6 -2 -5 -13z"/>
<path d="M5303 8565 c0 -22 2 -30 4 -17 2 12 2 30 0 40 -3 9 -5 -1 -4 -23z"/>
<path d="M5721 8564 c0 -11 3 -14 6 -6 3 7 2 16 -1 19 -3 4 -6 -2 -5 -13z"/>
<path d="M4511 8554 c0 -11 3 -14 6 -6 3 7 2 16 -1 19 -3 4 -6 -2 -5 -13z"/>
<path d="M4930 8539 c0 -13 5 -31 10 -39 7 -11 8 -5 4 20 -8 43 -14 51 -14 19z"/>
<path d="M5739 8528 c12 -16 33 -18 205 -16 l191 3 -189 2 c-130 3 -194 7
-205 16 -14 11 -14 10 -2 -5z"/>
<path d="M4198 8513 c57 -2 147 -2 200 0 53 1 7 3 -103 3 -110 0 -154 -2 -97
-3z"/>
<path d="M4032 8483 c-15 -16 -19 -21 -7 -12 11 9 29 21 40 27 11 6 14 12 8
12 -7 0 -25 -12 -41 -27z"/>
<path d="M6165 8498 c11 -6 29 -18 40 -27 12 -9 8 -4 -7 12 -16 15 -34 27 -41
27 -6 0 -3 -6 8 -12z"/>
<path d="M4958 8465 c6 -11 21 -29 34 -40 22 -19 22 -19 -2 10 -40 48 -43 51
-32 30z"/>
<path d="M5244 8438 l-29 -33 33 29 c30 28 37 36 29 36 -2 0 -16 -15 -33 -32z"/>
<path d="M6236 8425 c4 -11 10 -82 12 -157 l4 -138 236 0 c208 0 242 -3 277
-19 51 -23 101 -79 114 -128 15 -53 15 -3493 0 -3546 -13 -49 -63 -105 -114
-128 -38 -18 -114 -19 -1640 -19 -1528 0 -1602 1 -1640 19 -52 24 -103 76
-116 121 -6 23 -9 622 -7 1802 l3 1766 30 44 c18 25 49 52 75 66 42 21 55 22
277 22 l233 0 0 118 c0 64 2 126 4 137 2 11 1 14 -1 8 -3 -10 -60 -13 -237
-13 -176 0 -246 -4 -291 -15 -172 -45 -298 -175 -334 -343 -8 -38 -11 -557
-11 -1810 0 -1900 -2 -1808 51 -1919 44 -92 150 -186 257 -226 l57 -22 1610
-3 c1170 -2 1626 0 1670 8 176 34 317 165 365 340 17 61 16 3591 -1 3654 -41
156 -185 291 -347 325 -30 6 -153 11 -287 11 -217 0 -235 1 -235 18 0 9 -5 24
-11 32 -9 12 -9 11 -3 -5z"/>
<path d="M5190 8400 c-9 -6 -10 -10 -3 -10 6 0 15 5 18 10 8 12 4 12 -15 0z"/>
<path d="M5068 8383 c6 -2 18 -2 25 0 6 3 1 5 -13 5 -14 0 -19 -2 -12 -5z"/>
<path d="M5138 8383 c6 -2 18 -2 25 0 6 3 1 5 -13 5 -14 0 -19 -2 -12 -5z"/>
<path d="M3983 8075 c0 -27 2 -38 4 -22 2 15 2 37 0 50 -2 12 -4 0 -4 -28z"/>
<path d="M6243 8060 c0 -30 2 -43 4 -27 2 15 2 39 0 55 -2 15 -4 2 -4 -28z"/>
<path d="M4020 7941 c5 -11 15 -23 21 -27 6 -3 3 5 -6 20 -20 30 -30 35 -15 7z"/>
<path d="M6189 7923 c-13 -16 -12 -17 4 -4 9 7 17 15 17 17 0 8 -8 3 -21 -13z"/>
<path d="M4223 7863 c9 -2 25 -2 35 0 9 3 1 5 -18 5 -19 0 -27 -2 -17 -5z"/>
<path d="M4298 7863 c12 -2 32 -2 45 0 12 2 2 4 -23 4 -25 0 -35 -2 -22 -4z"/>
<path d="M4403 7863 c9 -2 23 -2 30 0 6 3 -1 5 -18 5 -16 0 -22 -2 -12 -5z"/>
<path d="M4458 7863 c7 -3 16 -2 19 1 4 3 -2 6 -13 5 -11 0 -14 -3 -6 -6z"/>
<path d="M4533 7863 c9 -2 23 -2 30 0 6 3 -1 5 -18 5 -16 0 -22 -2 -12 -5z"/>
<path d="M4773 7863 c9 -2 23 -2 30 0 6 3 -1 5 -18 5 -16 0 -22 -2 -12 -5z"/>
<path d="M5258 7863 c7 -3 16 -2 19 1 4 3 -2 6 -13 5 -11 0 -14 -3 -6 -6z"/>
<path d="M5398 7863 c12 -2 30 -2 40 0 9 3 -1 5 -23 4 -22 0 -30 -2 -17 -4z"/>
<path d="M5468 7863 c7 -3 16 -2 19 1 4 3 -2 6 -13 5 -11 0 -14 -3 -6 -6z"/>
<path d="M5828 7863 c7 -3 16 -2 19 1 4 3 -2 6 -13 5 -11 0 -14 -3 -6 -6z"/>
<path d="M4708 7481 c54 -9 84 -39 93 -93 l6 -43 2 39 c1 31 -5 44 -33 72 -28
28 -41 34 -72 33 l-39 -2 43 -6z"/>
<path d="M4590 7423 c-24 -27 -127 -136 -229 -244 l-186 -197 163 167 c168
171 308 321 299 321 -2 0 -24 -21 -47 -47z"/>
<path d="M4750 7286 l-44 -51 49 47 c27 26 47 49 45 51 -3 2 -25 -20 -50 -47z"/>
<path d="M3794 7196 c-28 -28 -34 -42 -34 -75 0 -38 7 -49 89 -139 49 -53 111
-117 137 -142 27 -25 11 -4 -36 45 -174 182 -180 190 -180 234 0 55 33 92 91
101 l44 7 -38 2 c-32 1 -45 -5 -73 -33z"/>
<path d="M4503 7018 c-298 -321 -284 -308 -327 -308 -44 0 -69 11 -116 54
l-35 31 30 -33 c48 -54 108 -75 158 -56 8 3 91 87 183 187 93 100 202 217 243
260 41 42 72 77 68 77 -3 0 -95 -96 -204 -212z"/>
<path d="M3961 7169 c30 -30 84 -83 119 -119 35 -36 19 -16 -36 43 -54 60
-108 114 -118 119 -11 6 5 -13 35 -43z"/>
<path d="M5043 7160 c-57 -34 -61 -117 -8 -170 l25 -25 690 0 689 0 30 29 c38
37 48 83 27 124 -34 66 8 62 -741 62 -658 0 -681 -1 -712 -20z"/>
<path d="M4609 6463 c-27 -25 -47 -48 -45 -50 2 -2 22 15 44 38 32 35 48 44
88 50 l49 6 -43 2 c-38 1 -48 -4 -93 -46z"/>
<path d="M4773 6474 c21 -21 27 -37 27 -69 0 -51 -7 -60 -243 -314 -92 -100
-166 -181 -163 -181 5 0 347 367 389 418 43 53 32 147 -20 167 -9 3 -4 -6 10
-21z"/>
<path d="M4400 6240 c-83 -88 -148 -160 -144 -159 10 1 309 319 301 319 -2 0
-73 -72 -157 -160z"/>
<path d="M3853 6233 c9 -2 23 -2 30 0 6 3 -1 5 -18 5 -16 0 -22 -2 -12 -5z"/>
<path d="M3786 6199 c-38 -44 -36 -98 5 -141 l31 -33 -26 33 c-37 48 -36 104
3 143 16 16 26 29 21 29 -4 0 -20 -14 -34 -31z"/>
<path d="M4025 6110 c66 -66 128 -120 136 -120 15 0 79 59 79 73 0 4 -14 -8
-31 -28 -17 -19 -39 -35 -48 -35 -9 0 -68 52 -131 115 -63 63 -117 115 -121
115 -3 0 49 -54 116 -120z"/>
<path d="M5065 6201 c-80 -33 -90 -149 -16 -198 l34 -23 664 0 c472 0 671 3
686 11 67 35 91 92 63 151 -34 71 2 68 -743 67 -367 0 -677 -4 -688 -8z"/>
<path d="M3934 5901 c141 -151 173 -181 188 -181 7 0 4 6 -7 12 -11 6 -81 73
-155 148 -125 127 -127 129 -26 21z"/>
<path d="M4315 5828 l-70 -73 73 70 c39 38 72 71 72 72 0 8 -11 -2 -75 -69z"/>
<path d="M4216 5735 c-11 -8 -16 -15 -10 -15 5 0 18 7 28 15 11 8 16 15 10 15
-5 0 -18 -7 -28 -15z"/>
<path d="M4153 5713 c9 -2 23 -2 30 0 6 3 -1 5 -18 5 -16 0 -22 -2 -12 -5z"/>
<path d="M4645 5501 c-35 -21 -71 -59 -63 -66 3 -3 13 6 22 19 19 30 48 47 96
57 34 7 34 7 5 8 -16 0 -43 -7 -60 -18z"/>
<path d="M4776 5478 c10 -14 21 -24 23 -22 3 3 -6 15 -18 27 l-24 22 19 -27z"/>
<path d="M4800 5407 c0 -18 -7 -44 -16 -57 l-16 -25 21 24 c18 20 31 91 16 91
-3 0 -5 -15 -5 -33z"/>
<path d="M4364 5210 c-108 -115 -201 -211 -208 -214 -8 -3 -8 -5 0 -5 6 -1
102 96 213 214 111 118 200 215 197 215 -3 0 -94 -94 -202 -210z"/>
<path d="M4578 5123 c-101 -109 -221 -238 -266 -288 -46 -49 -96 -95 -110
-102 -21 -9 -23 -12 -8 -13 11 0 35 17 55 38 148 157 521 562 517 562 -3 0
-87 -89 -188 -197z"/>
<path d="M3848 5243 c6 -2 18 -2 25 0 6 3 1 5 -13 5 -14 0 -19 -2 -12 -5z"/>
<path d="M3789 5213 l-24 -28 30 25 c17 14 32 26 34 28 2 1 0 2 -6 2 -5 0 -20
-12 -34 -27z"/>
<path d="M4000 5145 c122 -131 152 -160 83 -80 -34 39 -85 93 -115 120 -29 28
-15 10 32 -40z"/>
<path d="M5029 5191 c-54 -54 -34 -150 38 -180 21 -8 209 -11 700 -9 l673 3
32 33 c27 27 33 40 33 77 0 35 -6 50 -29 74 l-30 31 -694 0 -694 0 -29 -29z"/>
<path d="M3760 5106 c0 -8 4 -17 9 -20 5 -4 7 3 4 14 -6 23 -13 26 -13 6z"/>
<path d="M3840 5003 c193 -205 272 -283 288 -283 11 0 6 6 -14 18 -17 9 -97
88 -179 175 -81 86 -150 157 -153 157 -3 0 23 -30 58 -67z"/>
<path d="M4012 3630 c-237 -64 -382 -256 -382 -505 0 -151 47 -271 145 -371
98 -100 234 -154 388 -154 155 0 290 55 387 155 232 242 181 653 -102 819
-122 71 -298 94 -436 56z m258 -196 c39 -12 66 -29 105 -68 68 -67 90 -129 89
-246 -1 -188 -106 -305 -285 -318 -192 -14 -319 112 -319 317 0 166 64 269
199 317 50 18 147 17 211 -2z"/>
<path d="M6882 3630 c-265 -70 -422 -309 -383 -584 39 -276 270 -459 561 -443
161 9 295 73 385 183 82 101 115 198 115 339 0 157 -45 270 -146 371 -134 135
-336 185 -532 134z m257 -197 c171 -55 246 -274 161 -472 -56 -129 -221 -192
-380 -145 -39 12 -66 29 -105 68 -66 66 -90 129 -90 241 0 112 24 175 90 241
37 37 67 57 101 68 66 20 160 20 223 -1z"/>
<path d="M2682 3528 l3 -103 157 -3 158 -3 2 -402 3 -402 105 0 105 0 3 402 2
402 153 3 152 3 3 103 3 102 -426 0 -426 0 3 -102z"/>
<path d="M5420 3120 l0 -510 220 0 c248 0 335 12 431 60 121 62 215 183 245
317 21 97 15 243 -15 326 -57 160 -195 274 -375 308 -27 5 -152 9 -277 9
l-229 0 0 -510z m487 295 c119 -36 192 -133 201 -269 6 -99 -17 -171 -74 -235
-66 -73 -122 -94 -271 -99 l-123 -4 0 317 0 318 108 -6 c59 -4 130 -13 159
-22z"/>
<path d="M4867 3143 c-10 -9 -8 -155 1 -171 7 -9 50 -12 183 -10 l174 3 3 93
3 92 -179 0 c-98 0 -182 -3 -185 -7z"/>
<path d="M5263 2376 c-145 -47 -223 -145 -223 -281 0 -86 21 -136 78 -187 52
-47 92 -67 222 -112 124 -44 164 -67 179 -105 36 -86 -63 -157 -191 -136 -60
10 -116 36 -163 77 l-40 35 -62 -55 c-35 -31 -63 -61 -63 -68 0 -20 106 -109
165 -138 75 -37 146 -49 242 -43 137 8 259 81 309 185 29 59 31 158 4 221 -39
90 -122 144 -322 210 -112 37 -148 66 -148 118 0 55 67 103 146 103 41 0 118
-29 156 -61 l40 -32 64 64 64 63 -38 39 c-20 21 -70 54 -110 74 -65 33 -81 36
-170 39 -64 3 -111 -1 -139 -10z"/>
<path d="M3722 1868 l3 -493 310 -3 c171 -1 320 0 333 3 22 5 23 9 20 98 l-3
92 -227 3 -228 2 0 395 0 395 -105 0 -105 0 2 -492z"/>
<path d="M4592 1868 l3 -493 100 0 100 0 3 493 2 492 -105 0 -105 0 2 -492z"/>
<path d="M5864 2347 c-3 -8 -4 -49 -2 -93 l3 -79 145 -3 145 -2 -3 -378 c-1
-207 0 -387 3 -400 5 -22 9 -23 108 -20 l102 3 3 397 2 397 138 3 137 3 3 93
3 92 -391 0 c-317 0 -392 -3 -396 -13z"/>
</g>
</svg>
